<?xml version="1.0" encoding="utf-8"?>
<!-- Generator: Adobe Illustrator 25.4.1, SVG Export Plug-In . SVG Version: 6.00 Build 0)  -->
<svg version="1.1" id="Capa_1" xmlns="http://www.w3.org/2000/svg" xmlns:xlink="http://www.w3.org/1999/xlink" x="0px" y="0px"
	 viewBox="0 0 100 100" style="enable-background:new 0 0 100 100;" xml:space="preserve">
<style type="text/css">
	.st0{fill:#FFFFFF;}
</style>
<g>
	<g>
		<path class="st0" d="M56.9,28.2v12l32.2,20v39.3H10.9v-99L56.9,28.2z M61,59.9h6.2v5.4H61V59.9z M72.9,82.3h6.2v5.3h-6.2V82.3z
			 M61,82.3h6.2v5.3H61V82.3z M72.9,70.5h6.2v5.4h-6.2V70.5z M61,70.5h6.2v5.4H61V70.5z M42.5,82.3h6.2v5.3h-6.2V82.3z M30.6,82.3
			h6.2v5.3h-6.2V82.3z M18.6,82.3h6.2v5.3h-6.2L18.6,82.3z M42.5,70.5h6.2v5.4h-6.2V70.5z M30.6,70.5h6.2v5.4h-6.2V70.5z M18.6,70.5
			h6.2v5.4h-6.2L18.6,70.5z M42.5,58.7h6.2v5.3h-6.2V58.7z M30.6,58.7h6.2v5.3h-6.2V58.7z M18.6,58.7h6.2v5.3h-6.2L18.6,58.7z
			 M42.5,46.9h6.2v5.4h-6.2V46.9z M30.6,46.9h6.2v5.4h-6.2V46.9z M18.6,46.9h6.2v5.4h-6.2L18.6,46.9z M42.5,35.1h6.2v5.3h-6.2V35.1z
			 M30.6,35.1h6.2v5.3h-6.2V35.1z M18.6,35.1h6.2v5.3h-6.2L18.6,35.1z M56.9,46.5v47.5h26.8V63.2L56.9,46.5z M51.5,94.1
			c0-20.9,0-41.9,0-62.8L16.3,10.1v84H51.5z"/>
	</g>
</g>
</svg>
