<?xml version="1.0" encoding="utf-8"?>
<!-- Generator: Adobe Illustrator 25.4.1, SVG Export Plug-In . SVG Version: 6.00 Build 0)  -->
<svg version="1.1" id="Capa_1" xmlns="http://www.w3.org/2000/svg" xmlns:xlink="http://www.w3.org/1999/xlink" x="0px" y="0px"
	 viewBox="0 0 100 100" style="enable-background:new 0 0 100 100;" xml:space="preserve">
<style type="text/css">
	.st0{fill:#0179FE;}
</style>
<path class="st0" d="M44.7,0.5C20.4,0.5,0.6,20.3,0.6,44.7s19.8,44.3,44.2,44.3c10.6,0,20.4-3.8,28-10l19.2,19.2
	c1.7,1.7,4.5,1.8,6.2,0.1c1.7-1.7,1.8-4.5,0.1-6.2l-0.1-0.1L78.9,72.6c6.2-7.6,10-17.4,10-28C89,20.3,69,0.5,44.7,0.5z M44.7,9.3
	c19.6,0,35.4,15.8,35.4,35.4S64.3,80,44.7,80S9.3,64.3,9.3,44.7S25.2,9.3,44.7,9.3z"/>
</svg>
