<?xml version="1.0" encoding="utf-8"?>
<!-- Generator: Adobe Illustrator 25.4.1, SVG Export Plug-In . SVG Version: 6.00 Build 0)  -->
<svg version="1.1" id="Capa_1" xmlns="http://www.w3.org/2000/svg" xmlns:xlink="http://www.w3.org/1999/xlink" x="0px" y="0px"
	 viewBox="0 0 100 100" style="enable-background:new 0 0 100 100;" xml:space="preserve">
<style type="text/css">
	.st0{fill:#FFFFFF;}
</style>
<path class="st0" d="M49.9,0.5L49.9,0.5c-18.4,0-33.4,15-33.4,33.4c0,16.2,8.6,25.8,16.5,38.3l17,27.3l17-27.3
	c7.9-12.5,16.7-22.1,16.7-38.3C83.5,15.5,68.5,0.5,49.9,0.5z M49.9,48.7c-8.6,0-15.7-7.1-15.7-15.7c0-8.8,7.1-16,15.7-16
	c8.8,0,15.7,7.1,15.7,16C65.6,41.5,58.7,48.7,49.9,48.7z"/>
</svg>
