<?xml version="1.0" encoding="utf-8"?>
<!-- Generator: Adobe Illustrator 25.4.1, SVG Export Plug-In . SVG Version: 6.00 Build 0)  -->
<svg version="1.1" id="Capa_1" xmlns="http://www.w3.org/2000/svg" xmlns:xlink="http://www.w3.org/1999/xlink" x="0px" y="0px"
	 viewBox="0 0 100 100" style="enable-background:new 0 0 100 100;" xml:space="preserve">
<style type="text/css">
	.st0{fill:#FFFFFF;}
</style>
<g>
	<path class="st0" d="M99.5,19.3c-3.6,1.6-7.6,2.7-11.7,3.2C92,20,95.2,16,96.8,11.3c-3.9,2.3-8.3,4-12.9,4.9
		c-3.7-3.9-9-6.4-14.8-6.4c-11.2,0-20.3,9.1-20.3,20.3c0,1.6,0.2,3.1,0.5,4.6c-16.9-0.8-31.8-8.9-41.9-21.2c-1.7,3-2.8,6.5-2.8,10.2
		c0,7,3.6,13.3,9,16.9c-3.3-0.1-6.5-1-9.2-2.5c0,0.1,0,0.2,0,0.3c0,9.8,7,18,16.3,19.9c-1.7,0.5-3.5,0.7-5.4,0.7
		c-1.3,0-2.6-0.1-3.8-0.4c2.6,8.1,10.1,13.9,19,14.1c-7,5.4-15.7,8.7-25.2,8.7c-1.6,0-3.3-0.1-4.8-0.3c9,5.8,19.7,9.1,31.1,9.1
		c37.4,0,57.8-30.9,57.8-57.8c0-0.9,0-1.8-0.1-2.6C93.3,26.9,96.8,23.4,99.5,19.3L99.5,19.3z"/>
</g>
</svg>
