<?xml version="1.0" encoding="utf-8"?>
<!-- Generator: Adobe Illustrator 25.4.1, SVG Export Plug-In . SVG Version: 6.00 Build 0)  -->
<svg version="1.1" id="Capa_1" xmlns="http://www.w3.org/2000/svg" xmlns:xlink="http://www.w3.org/1999/xlink" x="0px" y="0px"
	 viewBox="0 0 100 100" style="enable-background:new 0 0 100 100;" xml:space="preserve">
<style type="text/css">
	.st0{fill:#FFFFFF;}
</style>
<g>
	<g>
		<path class="st0" d="M92,44.2L71.9,64.2c-9.9,9.9-26,9.9-36.1,0c-3-3-5.1-6.6-6.3-10.5l8.1-8.1c0.8-0.8,1.6-1.5,2.5-2
			c-0.8,4.3,0.5,9.1,3.8,12.4c5.4,5.4,14.3,5.4,19.8,0l20.1-20.1c5.4-5.4,5.4-14.3,0-19.8c-5.4-5.4-14.3-5.4-19.8,0l-11,11
			c-5.8-1.5-12-1.2-17.5,1.3c0.2-0.2,0.3-0.3,0.5-0.5L56.1,7.9C66-2,82.1-2,92.2,7.9C101.9,18.1,101.9,34.3,92,44.2L92,44.2z
			 M47,72.8l-11,11c-5.4,5.4-14.3,5.4-19.8,0c-5.4-5.4-5.4-14.3,0-19.8L36.3,44c5.4-5.4,14.3-5.4,19.8,0c3.3,3.3,4.6,8.1,3.8,12.4
			c0.8-0.5,1.8-1.2,2.5-2l8.1-8.1c-1.2-3.8-3.3-7.4-6.3-10.5c-9.9-9.9-26-9.9-36.1,0L8,56c-9.9,9.9-9.9,26,0,36.1
			c9.9,9.9,26,9.9,36.1,0l20.6-20.6C58.9,74,52.8,74.3,47,72.8L47,72.8z"/>
	</g>
</g>
</svg>
